<svg xmlns="http://www.w3.org/2000/svg" viewBox="0 0 64 64" role="img" aria-label="SpendSense logo">
  <rect width="64" height="64" rx="16" fill="#f0fdf4"/>
  <circle cx="32" cy="32" r="24" fill="#16a34a"/>
  <path
    fill="#ffffff"
    d="M34.6 14.5v5.1c4.1.4 7.6 1.8 10.4 4.1l-4 5.5c-2.1-1.7-4.4-2.8-6.9-3.2v8.4c4.3 1.1 7.4 2.5 9.3 4.2 1.9 1.6 2.9 3.9 2.9 6.9 0 3.1-1.1 5.6-3.3 7.5-2.2 1.9-5 3-8.4 3.2v4.8h-5.1v-4.9c-5.1-.5-9.4-2.4-12.9-5.7l4.5-5.4c2.7 2.4 5.6 3.9 8.9 4.5v-8.8c-4.1-1-7.1-2.4-9-4-1.9-1.6-2.8-3.9-2.8-6.8 0-3 1.1-5.4 3.2-7.3 2.1-1.8 4.8-2.9 8.1-3.1v-5h5.1Zm-8.8 14.9c0 1 .3 1.8 1 2.4.6.6 1.7 1.1 3.2 1.6v-7.5c-2.8.4-4.2 1.6-4.2 3.5Zm8.3 20.2c3-.4 4.5-1.7 4.5-3.9 0-1-.3-1.8-1-2.4-.7-.6-1.8-1.1-3.5-1.7v8Z"
  />
</svg>
